<svg width="177" height="65" viewBox="0 0 177 65" fill="none" xmlns="http://www.w3.org/2000/svg">
<path d="M77.9219 20.6719V29.3594H79.8281L86.9219 20.6719H91.9531L83.3438 31.0312L92.8594 42H87.6719L79.8594 32.7656H77.9219V42H73.875V20.6719H77.9219ZM113.777 20.6719V42H106.917L100.824 30.2969C100.522 29.7135 100.048 28.6927 99.4019 27.2344L98.7144 25.7031L98.0425 24.1719H97.8862L97.9487 25.5781L97.9956 26.9688L98.0269 29.7656V42H93.98V20.6719H100.839L106.386 31.4844C106.876 32.4427 107.444 33.6042 108.089 34.9688L108.902 36.7031L109.714 38.4531H109.855L109.808 37.0781L109.761 35.7031L109.73 32.9531V20.6719H113.777ZM126.538 37.2188H130.132V37.7969C130.132 40.7135 127.944 42.1719 123.569 42.1719C120.601 42.1719 118.658 41.6667 117.741 40.6562C116.825 39.6458 116.366 37.5052 116.366 34.2344C116.366 31.3281 116.845 29.375 117.804 28.375C118.762 27.375 120.632 26.875 123.413 26.875C126.08 26.875 127.866 27.3646 128.772 28.3438C129.679 29.3125 130.132 31.224 130.132 34.0781V35.1719H120.022C120.002 35.5052 119.991 35.724 119.991 35.8281C119.991 37.2969 120.215 38.276 120.663 38.7656C121.121 39.2552 122.028 39.5 123.382 39.5C124.694 39.5 125.549 39.3594 125.944 39.0781C126.34 38.7865 126.538 38.1667 126.538 37.2188ZM126.569 32.9844L126.554 32.3906C126.554 31.2031 126.345 30.4323 125.929 30.0781C125.522 29.724 124.632 29.5469 123.257 29.5469C121.924 29.5469 121.054 29.7604 120.647 30.1875C120.252 30.6146 120.054 31.5469 120.054 32.9844H126.569ZM144.831 27.0625L140.487 34.0938L145.315 42H141.034L138.034 36.5781L135.112 42H130.721L135.612 34.1406L131.299 27.0625H135.565L138.034 31.7969L140.565 27.0625H144.831ZM159.732 27.0625V42H156.154L156.357 39.4375L156.295 39.4219C155.597 41.2552 153.993 42.1719 151.482 42.1719C148.097 42.1719 146.404 40.4792 146.404 37.0938V27.0625H149.982V36.2344C149.982 37.5052 150.16 38.3438 150.514 38.75C150.868 39.1458 151.602 39.3438 152.717 39.3438C155.009 39.3438 156.154 37.9688 156.154 35.2188V27.0625H159.732ZM175.322 31.1719H171.822C171.801 31.0469 171.785 30.9531 171.775 30.8906C171.702 30.1719 171.494 29.724 171.15 29.5469C170.817 29.3698 169.999 29.2812 168.697 29.2812C166.832 29.2812 165.9 29.8854 165.9 31.0938C165.9 31.9167 166.061 32.4062 166.384 32.5625C166.718 32.7188 167.832 32.8438 169.728 32.9375C172.28 33.0625 173.942 33.401 174.713 33.9531C175.483 34.5052 175.869 35.6354 175.869 37.3438C175.869 39.1667 175.353 40.4323 174.322 41.1406C173.301 41.8385 171.463 42.1875 168.806 42.1875C166.254 42.1875 164.509 41.8698 163.572 41.2344C162.634 40.599 162.166 39.4115 162.166 37.6719V37.2969H165.884C165.832 37.5052 165.801 37.6719 165.791 37.7969C165.645 39.1198 166.666 39.7812 168.853 39.7812C171.114 39.7812 172.244 39.125 172.244 37.8125C172.244 36.5521 171.535 35.9219 170.119 35.9219C166.921 35.9219 164.811 35.6198 163.791 35.0156C162.78 34.4115 162.275 33.1562 162.275 31.25C162.275 29.5417 162.739 28.3854 163.666 27.7812C164.593 27.1771 166.374 26.875 169.009 26.875C171.499 26.875 173.171 27.1667 174.025 27.75C174.89 28.3333 175.322 29.474 175.322 31.1719Z" fill="black"/>
<g clip-path="url(#clip0_740_711)">
<path d="M50.3457 2H9.65428C4.32237 2 0 6.32237 0 11.6543V52.3457C0 57.6776 4.32237 62 9.65428 62H50.3457C55.6776 62 60 57.6776 60 52.3457V11.6543C60 6.32237 55.6776 2 50.3457 2Z" fill="#D5F95F"/>
<path d="M13.1638 50.6122H23.7686C24.3485 50.6122 24.8566 50.2236 25.012 49.6677L37.3085 15.0259C37.5357 14.2009 36.9199 13.3879 36.0651 13.3879H25.4603C24.8805 13.3879 24.3724 13.7765 24.2169 14.3324L11.9264 48.9683C11.6993 49.7932 12.315 50.6062 13.1698 50.6062L13.1638 50.6122Z" fill="black"/>
<path d="M45.4442 40.7129H37.3262C36.8343 40.7129 36.4355 41.1117 36.4355 41.6036V49.7216C36.4355 50.2135 36.8343 50.6123 37.3262 50.6123H45.4442C45.9361 50.6123 46.3349 50.2135 46.3349 49.7216V41.6036C46.3349 41.1117 45.9361 40.7129 45.4442 40.7129Z" fill="black"/>
<path d="M45.4442 26.8562H37.3262C36.8343 26.8562 36.4355 27.255 36.4355 27.7469V35.8649C36.4355 36.3568 36.8343 36.7556 37.3262 36.7556H45.4442C45.9361 36.7556 46.3349 36.3568 46.3349 35.8649V27.7469C46.3349 27.255 45.9361 26.8562 45.4442 26.8562Z" fill="black"/>
</g>
<defs>
<clipPath id="clip0_740_711">
<rect width="60" height="60" fill="white" transform="translate(0 2)"/>
</clipPath>
</defs>
</svg>
