<svg width="60" height="60" viewBox="0 0 60 60" fill="none" xmlns="http://www.w3.org/2000/svg">
<path d="M60 30C60 46.5677 46.5677 60 30 60C13.4302 60 0 46.5677 0 30C0 13.4302 13.4313 0 30 0C46.5677 0 60 13.4313 60 30Z" fill="#D5F95F"/>
<path d="M33.9993 30.0001H25.5V21.0001H33.9993C34.5903 21.0001 35.1754 21.1165 35.7214 21.3427C36.2674 21.5688 36.7634 21.9003 37.1813 22.3181C37.5992 22.736 37.9306 23.2321 38.1568 23.778C38.3829 24.324 38.4993 24.9092 38.4993 25.5001C38.4993 26.0911 38.3829 26.6762 38.1568 27.2222C37.9306 27.7682 37.5992 28.2642 37.1813 28.6821C36.7634 29.1 36.2674 29.4314 35.7214 29.6576C35.1754 29.8837 34.5903 30.0001 33.9993 30.0001ZM33.9993 15.0001H19.5V45.0001H25.5V36.0001H33.9993C39.7982 36.0001 44.4993 31.299 44.4993 25.5001C44.4993 19.7012 39.7982 15.0001 33.9993 15.0001Z" fill="black"/>
</svg>
