<svg width="16" height="16" viewBox="0 0 16 16" fill="none" xmlns="http://www.w3.org/2000/svg">
<g id="Group">
<g id="Group_2">
<path id="Vector" d="M16 8C16 3.58737 12.4126 0 8 0C3.58737 0 0 3.58737 0 8C0 12.4126 3.58737 16 8 16C12.4126 16 16 12.4126 16 8ZM12.2947 8.23579C12.2947 8.72421 11.8905 9.12842 11.4021 9.12842H9.12842V11.4021C9.12842 11.8905 8.72421 12.2947 8.23579 12.2947H7.76421C7.27579 12.2947 6.87158 11.8905 6.87158 11.4021V9.12842H4.59789C4.10947 9.12842 3.70526 8.72421 3.70526 8.23579V7.76421C3.70526 7.27579 4.10947 6.87158 4.59789 6.87158H6.87158V4.59789C6.87158 4.10947 7.27579 3.70526 7.76421 3.70526H8.23579C8.72421 3.70526 9.12842 4.10947 9.12842 4.59789V6.87158H11.4021C11.8905 6.87158 12.2947 7.27579 12.2947 7.76421V8.23579Z" fill="black"/>
</g>
</g>
</svg>
