<svg width="24" height="24" viewBox="0 0 24 24" fill="none" xmlns="http://www.w3.org/2000/svg">
<path d="M15.1751 13.4823C14.8007 13.4823 14.4416 13.6311 14.1768 13.8958C13.9121 14.1606 13.7633 14.5197 13.7633 14.8941V19.8353C13.7633 20.2097 13.9121 20.5688 14.1768 20.8335C14.4416 21.0983 14.8007 21.247 15.1751 21.247H20.1163C20.4907 21.247 20.8498 21.0983 21.1145 20.8335C21.3793 20.5688 21.528 20.2097 21.528 19.8353V14.8941C21.528 14.5197 21.3793 14.1606 21.1145 13.8958C20.8498 13.6311 20.4907 13.4823 20.1163 13.4823H15.1751ZM15.1751 12.0706H20.1163C20.4871 12.0706 20.8542 12.1436 21.1968 12.2855C21.5394 12.4274 21.8506 12.6354 22.1128 12.8975C22.375 13.1597 22.583 13.471 22.7249 13.8136C22.8668 14.1561 22.9398 14.5233 22.9398 14.8941V19.8353C22.9398 20.2061 22.8668 20.5732 22.7249 20.9158C22.583 21.2583 22.375 21.5696 22.1128 21.8318C21.8506 22.094 21.5394 22.302 21.1968 22.4439C20.8542 22.5858 20.4871 22.6588 20.1163 22.6588H15.1751C14.8043 22.6588 14.4371 22.5858 14.0946 22.4439C13.752 22.302 13.4407 22.094 13.1786 21.8318C12.9164 21.5696 12.7084 21.2583 12.5665 20.9158C12.4246 20.5732 12.3516 20.2061 12.3516 19.8353V14.8941C12.3516 14.1452 12.649 13.4271 13.1786 12.8975C13.7081 12.368 14.4262 12.0706 15.1751 12.0706ZM3.17509 13.4823C2.80067 13.4823 2.44158 13.6311 2.17682 13.8958C1.91207 14.1606 1.76333 14.5197 1.76333 14.8941V19.8353C1.76333 20.2097 1.91207 20.5688 2.17682 20.8335C2.44158 21.0983 2.80067 21.247 3.17509 21.247H8.11627C8.49069 21.247 8.84978 21.0983 9.11454 20.8335C9.37929 20.5688 9.52803 20.2097 9.52803 19.8353V14.8941C9.52803 14.5197 9.37929 14.1606 9.11454 13.8958C8.84978 13.6311 8.49069 13.4823 8.11627 13.4823H3.17509ZM3.17509 12.0706H8.11627C8.86511 12.0706 9.58329 12.368 10.1128 12.8975C10.6423 13.4271 10.9398 14.1452 10.9398 14.8941V19.8353C10.9398 20.2061 10.8668 20.5732 10.7249 20.9158C10.583 21.2583 10.375 21.5696 10.1128 21.8318C9.85062 22.094 9.53935 22.302 9.19679 22.4439C8.85422 22.5858 8.48706 22.6588 8.11627 22.6588H3.17509C2.8043 22.6588 2.43714 22.5858 2.09457 22.4439C1.75201 22.302 1.44074 22.094 1.17856 21.8318C0.916366 21.5696 0.708386 21.2583 0.566491 20.9158C0.424595 20.5732 0.351562 20.2061 0.351563 19.8353V14.8941C0.351563 14.1452 0.649041 13.4271 1.17856 12.8975C1.70807 12.368 2.42625 12.0706 3.17509 12.0706ZM15.1751 1.48232C14.8007 1.48232 14.4416 1.63106 14.1768 1.89582C13.9121 2.16057 13.7633 2.51966 13.7633 2.89409V7.83526C13.7633 8.20968 13.9121 8.56877 14.1768 8.83353C14.4416 9.09829 14.8007 9.24703 15.1751 9.24703H20.1163C20.4907 9.24703 20.8498 9.09829 21.1145 8.83353C21.3793 8.56877 21.528 8.20968 21.528 7.83526V2.89409C21.528 2.51966 21.3793 2.16057 21.1145 1.89582C20.8498 1.63106 20.4907 1.48232 20.1163 1.48232H15.1751ZM15.1751 0.0705566H20.1163C20.4871 0.0705566 20.8542 0.143589 21.1968 0.285485C21.5394 0.427381 21.8506 0.63536 22.1128 0.897549C22.375 1.15974 22.583 1.471 22.7249 1.81357C22.8668 2.15613 22.9398 2.52329 22.9398 2.89409V7.83526C22.9398 8.20605 22.8668 8.57321 22.7249 8.91578C22.583 9.25835 22.375 9.56961 22.1128 9.8318C21.8506 10.094 21.5394 10.302 21.1968 10.4439C20.8542 10.5858 20.4871 10.6588 20.1163 10.6588H15.1751C14.8043 10.6588 14.4371 10.5858 14.0946 10.4439C13.752 10.302 13.4407 10.094 13.1786 9.8318C12.9164 9.56961 12.7084 9.25835 12.5665 8.91578C12.4246 8.57321 12.3516 8.20605 12.3516 7.83526V2.89409C12.3516 2.14524 12.649 1.42706 13.1786 0.897549C13.7081 0.368035 14.4262 0.0705566 15.1751 0.0705566ZM3.17509 1.48232C2.80067 1.48232 2.44158 1.63106 2.17682 1.89582C1.91207 2.16057 1.76333 2.51966 1.76333 2.89409V7.83526C1.76333 8.20968 1.91207 8.56877 2.17682 8.83353C2.44158 9.09829 2.80067 9.24703 3.17509 9.24703H8.11627C8.49069 9.24703 8.84978 9.09829 9.11454 8.83353C9.37929 8.56877 9.52803 8.20968 9.52803 7.83526V2.89409C9.52803 2.51966 9.37929 2.16057 9.11454 1.89582C8.84978 1.63106 8.49069 1.48232 8.11627 1.48232H3.17509ZM3.17509 0.0705566H8.11627C8.86511 0.0705566 9.58329 0.368035 10.1128 0.897549C10.6423 1.42706 10.9398 2.14524 10.9398 2.89409V7.83526C10.9398 8.20605 10.8668 8.57321 10.7249 8.91578C10.583 9.25835 10.375 9.56961 10.1128 9.8318C9.85062 10.094 9.53935 10.302 9.19679 10.4439C8.85422 10.5858 8.48706 10.6588 8.11627 10.6588H3.17509C2.8043 10.6588 2.43714 10.5858 2.09457 10.4439C1.75201 10.302 1.44074 10.094 1.17856 9.8318C0.916366 9.56961 0.708386 9.25835 0.566491 8.91578C0.424595 8.57321 0.351562 8.20605 0.351563 7.83526V2.89409C0.351563 2.14524 0.649041 1.42706 1.17856 0.897549C1.70807 0.368035 2.42625 0.0705566 3.17509 0.0705566Z" fill="#333333"/>
</svg>
