<svg width="15" height="14" viewBox="0 0 15 14" fill="none" xmlns="http://www.w3.org/2000/svg">
<path fill-rule="evenodd" clip-rule="evenodd" d="M7.49989 2.19764C6.74406 1.16856 5.52531 0.5 4.15157 0.5C1.86034 0.5 0 2.36049 0 4.65157C0 6.35567 1.16086 8.1502 2.59818 9.66701C4.64987 11.8317 7.21505 13.4433 7.21505 13.4433C7.38915 13.5526 7.61086 13.5526 7.78495 13.4433C7.78495 13.4433 10.35 11.8318 12.4018 9.66701C13.8391 8.15041 15 6.35573 15 4.65157C15 2.36034 13.1395 0.5 10.8484 0.5C9.47484 0.5 8.2561 1.16856 7.50011 2.19764L7.49989 2.19764Z" fill="#FF5E2A"/>
</svg>
