<svg width="104" height="36" viewBox="0 0 104 36" fill="none" xmlns="http://www.w3.org/2000/svg">
<path d="M46.0791 11.0416V16.179H47.2064L51.4012 11.0416H54.3765L49.2853 17.1676L54.9124 23.654H51.8448L47.2248 18.1933H46.0791V23.654H43.686V11.0416H46.0791Z" fill="black"/>
<path d="M67.2819 11.0416V23.654H63.2257L59.6221 16.7334C59.4435 16.3884 59.1632 15.7847 58.7813 14.9224L58.3747 14.0169L57.9774 13.1114H57.885L57.922 13.9429L57.9497 14.7653L57.9682 16.4192V23.654H55.5751V11.0416H59.6314L62.9115 17.4356C63.201 18.0023 63.5367 18.6891 63.9186 19.4961L64.3991 20.5217L64.8796 21.5566H64.9627L64.935 20.7435L64.9073 19.9304L64.8888 18.3041V11.0416H67.2819Z" fill="black"/>
<path d="M74.8283 20.8266H76.9535V21.1685C76.9535 22.8933 75.6599 23.7557 73.0727 23.7557C71.3172 23.7557 70.1684 23.4569 69.6263 22.8594C69.0842 22.2619 68.8132 20.996 68.8132 19.0618C68.8132 17.3432 69.0965 16.1882 69.6632 15.5969C70.23 15.0055 71.3357 14.7098 72.9803 14.7098C74.5573 14.7098 75.6137 14.9994 76.1496 15.5784C76.6855 16.1513 76.9535 17.2816 76.9535 18.9694V19.6162H70.9753C70.963 19.8133 70.9568 19.9427 70.9568 20.0043C70.9568 20.8728 71.0893 21.4519 71.3541 21.7414C71.6252 22.0309 72.1611 22.1756 72.9619 22.1756C73.738 22.1756 74.2431 22.0925 74.4772 21.9262C74.7113 21.7537 74.8283 21.3872 74.8283 20.8266ZM74.8468 18.3226L74.8376 17.9715C74.8376 17.2693 74.7144 16.8134 74.468 16.604C74.2277 16.3946 73.7011 16.2899 72.8879 16.2899C72.0995 16.2899 71.5851 16.4161 71.3449 16.6687C71.1108 16.9212 70.9938 17.4726 70.9938 18.3226H74.8468Z" fill="black"/>
<path d="M85.6456 14.8207L83.0769 18.9787L85.932 23.654H83.4003L81.6263 20.4478L79.8984 23.654H77.302L80.1941 19.0064L77.6439 14.8207H80.1664L81.6263 17.6204L83.1231 14.8207H85.6456Z" fill="black"/>
<path d="M94.4578 14.8207V23.654H92.3419L92.462 22.1387L92.425 22.1294C92.0123 23.2136 91.0637 23.7557 89.5792 23.7557C87.5772 23.7557 86.5762 22.7547 86.5762 20.7527V14.8207H88.6922V20.2445C88.6922 20.996 88.7969 21.4919 89.0063 21.7321C89.2157 21.9662 89.65 22.0832 90.3091 22.0832C91.6643 22.0832 92.3419 21.2701 92.3419 19.6439V14.8207H94.4578Z" fill="black"/>
<path d="M103.677 17.2508H101.607C101.595 17.1769 101.585 17.1214 101.579 17.0845C101.536 16.6595 101.413 16.3946 101.21 16.2899C101.012 16.1851 100.529 16.1328 99.7589 16.1328C98.6563 16.1328 98.105 16.4901 98.105 17.2046C98.105 17.6912 98.2004 17.9808 98.3914 18.0731C98.5885 18.1655 99.2476 18.2395 100.369 18.2949C101.878 18.3688 102.86 18.569 103.316 18.8955C103.772 19.222 104 19.8903 104 20.9005C104 21.9785 103.695 22.727 103.085 23.1458C102.482 23.5585 101.394 23.7649 99.8236 23.7649C98.3144 23.7649 97.2826 23.577 96.7282 23.2013C96.1738 22.8255 95.8966 22.1233 95.8966 21.0946V20.8728H98.0957C98.0649 20.996 98.0464 21.0946 98.0403 21.1685C97.954 21.9508 98.5577 22.342 99.8513 22.342C101.188 22.342 101.856 21.9539 101.856 21.1777C101.856 20.4324 101.437 20.0597 100.6 20.0597C98.7086 20.0597 97.4613 19.8811 96.8576 19.5238C96.2601 19.1665 95.9613 18.4243 95.9613 17.297C95.9613 16.2868 96.2354 15.603 96.7837 15.2458C97.3319 14.8885 98.3852 14.7098 99.9437 14.7098C101.416 14.7098 102.405 14.8823 102.91 15.2273C103.421 15.5722 103.677 16.2467 103.677 17.2508Z" fill="black"/>
<g clip-path="url(#clip0_1177_520)">
<path d="M29.7719 0H5.70906C2.55603 0 0 2.55603 0 5.70906V29.7719C0 32.925 2.55603 35.481 5.70906 35.481H29.7719C32.925 35.481 35.481 32.925 35.481 29.7719V5.70906C35.481 2.55603 32.925 0 29.7719 0Z" fill="black"/>
<path d="M7.78414 28.7468H14.0553C14.3982 28.7468 14.6986 28.517 14.7905 28.1882L22.0621 7.70279C22.1964 7.21496 21.8323 6.73419 21.3268 6.73419H15.0557C14.7128 6.73419 14.4123 6.96397 14.3204 7.29273L7.05239 27.7746C6.91806 28.2625 7.28216 28.7432 7.78767 28.7432L7.78414 28.7468Z" fill="#D5F95F"/>
<path d="M26.8732 22.8928H22.0727C21.7818 22.8928 21.546 23.1286 21.546 23.4195V28.22C21.546 28.5109 21.7818 28.7468 22.0727 28.7468H26.8732C27.1641 28.7468 27.4 28.5109 27.4 28.22V23.4195C27.4 23.1286 27.1641 22.8928 26.8732 22.8928Z" fill="#D5F95F"/>
<path d="M26.8732 14.6986H22.0727C21.7818 14.6986 21.546 14.9344 21.546 15.2253V20.0259C21.546 20.3168 21.7818 20.5526 22.0727 20.5526H26.8732C27.1641 20.5526 27.4 20.3168 27.4 20.0259V15.2253C27.4 14.9344 27.1641 14.6986 26.8732 14.6986Z" fill="#D5F95F"/>
</g>
<defs>
<clipPath id="clip0_1177_520">
<rect width="35.481" height="35.481" fill="white"/>
</clipPath>
</defs>
</svg>
