<svg width="40" height="40" viewBox="0 0 40 40" fill="none" xmlns="http://www.w3.org/2000/svg">
<g id="_&#229;&#177;&#130;_1" clip-path="url(#clip0_3096_3783)">
<path id="Vector" d="M33.5638 0H6.43619C2.88158 0 0 2.88158 0 6.43619V33.5638C0 37.1184 2.88158 40 6.43619 40H33.5638C37.1184 40 40 37.1184 40 33.5638V6.43619C40 2.88158 37.1184 0 33.5638 0Z" fill="black"/>
<g id="Group">
<path id="Vector_2" d="M8.77557 32.408H15.8454C16.232 32.408 16.5707 32.1489 16.6743 31.7783L24.872 8.68376C25.0235 8.13379 24.613 7.5918 24.0431 7.5918H16.9732C16.5867 7.5918 16.2479 7.85084 16.1443 8.22147L7.95062 31.312C7.79918 31.862 8.20966 32.404 8.77955 32.404L8.77557 32.408Z" fill="#D5F95F"/>
<g id="Group_2">
<path id="Vector_3" d="M30.2958 25.8086H24.8838C24.5559 25.8086 24.29 26.0744 24.29 26.4024V31.8144C24.29 32.1423 24.5559 32.4082 24.8838 32.4082H30.2958C30.6238 32.4082 30.8896 32.1423 30.8896 31.8144V26.4024C30.8896 26.0744 30.6238 25.8086 30.2958 25.8086Z" fill="#D5F95F"/>
<path id="Vector_4" d="M30.2958 16.5703H24.8838C24.5559 16.5703 24.29 16.8362 24.29 17.1641V22.5761C24.29 22.904 24.5559 23.1699 24.8838 23.1699H30.2958C30.6238 23.1699 30.8896 22.904 30.8896 22.5761V17.1641C30.8896 16.8362 30.6238 16.5703 30.2958 16.5703Z" fill="#D5F95F"/>
</g>
</g>
</g>
<defs>
<clipPath id="clip0_3096_3783">
<rect width="40" height="40" fill="white"/>
</clipPath>
</defs>
</svg>
