<svg width="60" height="60" viewBox="0 0 60 60" fill="none" xmlns="http://www.w3.org/2000/svg">
<g clip-path="url(#clip0_5026_2167)">
<path d="M50.3457 0H9.65428C4.32237 0 0 4.32237 0 9.65428V50.3457C0 55.6776 4.32237 60 9.65428 60H50.3457C55.6776 60 60 55.6776 60 50.3457V9.65428C60 4.32237 55.6776 0 50.3457 0Z" fill="#D5F95F"/>
<path d="M13.1638 48.6129H23.7686C24.3485 48.6129 24.8566 48.2244 25.012 47.6684L37.3085 13.0266C37.5357 12.2017 36.9199 11.3887 36.0651 11.3887H25.4603C24.8805 11.3887 24.3724 11.7772 24.2169 12.3332L11.9264 46.969C11.6993 47.794 12.315 48.607 13.1698 48.607L13.1638 48.6129Z" fill="black"/>
<path d="M45.4462 38.7148H37.3282C36.8363 38.7148 36.4375 39.1136 36.4375 39.6055V47.7235C36.4375 48.2154 36.8363 48.6142 37.3282 48.6142H45.4462C45.9381 48.6142 46.3369 48.2154 46.3369 47.7235V39.6055C46.3369 39.1136 45.9381 38.7148 45.4462 38.7148Z" fill="black"/>
<path d="M45.4462 24.8574H37.3282C36.8363 24.8574 36.4375 25.2562 36.4375 25.7481V33.8661C36.4375 34.358 36.8363 34.7568 37.3282 34.7568H45.4462C45.9381 34.7568 46.3369 34.358 46.3369 33.8661V25.7481C46.3369 25.2562 45.9381 24.8574 45.4462 24.8574Z" fill="black"/>
</g>
<defs>
<clipPath id="clip0_5026_2167">
<rect width="60" height="60" fill="white"/>
</clipPath>
</defs>
</svg>
