<svg width="36" height="34" viewBox="0 0 36 34" fill="none" xmlns="http://www.w3.org/2000/svg">
<path d="M0 20C0 8.9543 8.95431 0 20 0H36V14C36 25.0457 27.0457 34 16 34H0V20Z" fill="#D5F95F"/>
<path d="M28.7501 13.1872V13.1874C28.7501 13.5154 28.6166 13.8129 28.4015 14.0277L28.7501 13.1872ZM28.7501 13.1872C28.7501 12.9523 28.6803 12.7226 28.5497 12.5273M28.7501 13.1872L27.8259 12.5505M27.8259 12.5505L28.0162 12.0901C28.2334 12.1798 28.419 12.332 28.5497 12.5273M27.8259 12.5505L28.0162 12.0901C27.7991 12.0003 27.5602 11.977 27.3298 12.0231M27.8259 12.5505L27.3298 12.0231M28.5497 12.5273L28.1341 12.8053M28.5497 12.5273C28.5497 12.5273 28.5497 12.5273 28.5497 12.5273L28.1341 12.8053M28.1341 12.8053C28.0584 12.6922 27.951 12.6041 27.8252 12.5521C27.6995 12.5002 27.5612 12.4867 27.4278 12.5133L28.1341 12.8053ZM27.3298 12.0231C27.0996 12.0691 26.8882 12.1823 26.7223 12.3484L27.3298 12.0231ZM18.7781 23.6511L28.4011 14.0281L26.7219 12.3489L17.9376 21.1331L13.2806 16.4761C13.1718 16.3644 13.0421 16.2751 12.8988 16.2135L12.8988 16.2135C12.7539 16.1512 12.5981 16.1184 12.4404 16.117C12.2827 16.1155 12.1264 16.1455 11.9804 16.2052C11.8344 16.2648 11.7018 16.353 11.5903 16.4644C11.4788 16.5759 11.3905 16.7084 11.3308 16.8544C11.271 17.0003 11.2409 17.1566 11.2422 17.3143C11.2435 17.472 11.2762 17.6278 11.3384 17.7727L11.7953 17.5767L11.3384 17.7727C11.4 17.9162 11.4892 18.046 11.601 18.1549L17.0968 23.6508C17.097 23.6509 17.0971 23.6511 17.0972 23.6512C17.0973 23.6512 17.0973 23.6513 17.0973 23.6513C17.312 23.8663 17.6096 23.9999 17.9376 23.9999C18.2656 23.9999 18.5633 23.8663 18.7779 23.6513C18.7779 23.6513 18.778 23.6512 18.7781 23.6511Z" fill="black" stroke="black"/>
</svg>
