<svg width="46" height="46" viewBox="0 0 46 46" fill="none" xmlns="http://www.w3.org/2000/svg">
<g id="&#229;&#136;&#134;&#228;&#186;&#171; (2) 1" clip-path="url(#clip0_3096_2980)">
<circle id="Ellipse 155" cx="23" cy="23" r="23" fill="#D5F95F"/>
<path id="Vector" d="M22.9551 2.875C11.8369 2.875 2.83008 11.8818 2.83008 23C2.83008 34.1137 11.8414 43.125 22.9551 43.125C34.0688 43.125 43.0801 34.1137 43.0801 23C43.0801 11.8818 34.0688 2.875 22.9551 2.875ZM19.9543 23C19.9543 23.4582 19.86 23.8984 19.6938 24.2982L25.2281 27.9863C25.7672 27.6045 26.4275 27.3799 27.1373 27.3799C28.9746 27.3799 30.466 28.8713 30.466 30.7086C30.466 32.5459 28.9746 34.0373 27.1373 34.0373C25.3 34.0373 23.8086 32.5459 23.8086 30.7086C23.8086 30.4525 23.84 30.2055 23.8939 29.9629L17.9912 26.0277C17.5734 26.2164 17.1107 26.3242 16.6211 26.3242C14.7838 26.3242 13.2924 24.8328 13.2924 22.9955C13.2924 21.1582 14.7838 19.6668 16.6211 19.6668C17.1107 19.6668 17.5734 19.7746 17.9912 19.9633L23.8939 16.0281C23.84 15.79 23.8086 15.5385 23.8086 15.2824C23.8086 13.4451 25.3 11.9537 27.1373 11.9537C28.9746 11.9537 30.466 13.4451 30.466 15.2824C30.466 17.1197 28.9746 18.6111 27.1373 18.6111C26.4275 18.6111 25.7672 18.3865 25.2281 18.0047L19.6938 21.6928C19.86 22.1016 19.9543 22.5373 19.9543 23Z" fill="black"/>
</g>
<defs>
<clipPath id="clip0_3096_2980">
<rect width="46" height="46" fill="white"/>
</clipPath>
</defs>
</svg>
