<svg width="14" height="12" viewBox="0 0 14 12" fill="none" xmlns="http://www.w3.org/2000/svg">
<path d="M6.3982 2.01173C6.53928 2.20134 6.76148 2.31335 6.99782 2.31401L6.99802 2.31401C7.2358 2.31467 7.4598 2.20254 7.60176 2.01179C8.1707 1.24733 9.08827 0.75 10.1252 0.75C11.8586 0.75 13.25 2.1373 13.25 3.82479C13.25 5.08597 12.3513 6.55405 11.034 7.926C10.1164 8.88173 9.07527 9.7235 8.25603 10.3301C7.84806 10.6322 7.4988 10.8733 7.25262 11.0382C7.14883 11.1077 7.0635 11.1635 7 11.2046C6.93649 11.1635 6.85116 11.1077 6.74737 11.0382C6.50118 10.8733 6.15191 10.6322 5.74393 10.3301C4.92469 9.72346 3.88362 8.8817 2.96601 7.92606C1.64872 6.55385 0.75 5.08591 0.75 3.82479C0.75 2.1374 2.14133 0.75 3.8748 0.75C4.91189 0.75 5.82943 1.24735 6.3982 2.01173Z" stroke="#FF5E2A" stroke-width="1.5" stroke-linejoin="round"/>
</svg>
