<svg width="32" height="32" viewBox="0 0 32 32" fill="none" xmlns="http://www.w3.org/2000/svg">
<rect width="32" height="32" rx="16" fill="black"/>
<mask id="mask0_4245_1433" style="mask-type:luminance" maskUnits="userSpaceOnUse" x="7" y="8" width="19" height="16">
<path fill-rule="evenodd" clip-rule="evenodd" d="M7.05859 8.4707H25.4115V23.5295H7.05859V8.4707Z" fill="white"/>
</mask>
<g mask="url(#mask0_4245_1433)">
<path fill-rule="evenodd" clip-rule="evenodd" d="M23.5326 12.2196C23.5438 12.3829 23.5438 12.5463 23.5438 12.7112C23.5438 17.7353 19.7562 23.5295 12.8303 23.5295V23.5265C10.7844 23.5295 8.78093 22.9378 7.05859 21.822C7.35609 21.8581 7.65507 21.8762 7.9548 21.8769C9.6503 21.8784 11.2973 21.304 12.6312 20.2462C11.02 20.2153 9.60705 19.1545 9.11347 17.6058C9.67789 17.7157 10.2595 17.6931 10.8134 17.5403C9.0568 17.1819 7.79301 15.6234 7.79301 13.8134V13.7652C8.31642 14.0596 8.90246 14.223 9.50192 14.2411C7.84744 13.1245 7.33745 10.902 8.33655 9.16432C10.2483 11.5397 13.0689 12.9837 16.0968 13.1366C15.7933 11.816 16.2079 10.4322 17.1861 9.50387C18.7026 8.06434 21.0878 8.13812 22.5134 9.66875C23.3567 9.50086 24.1649 9.18841 24.9045 8.74571C24.6234 9.62584 24.0352 10.3735 23.2493 10.8485C23.9956 10.7597 24.7248 10.5579 25.4115 10.25C24.906 11.0149 24.2693 11.6812 23.5326 12.2196" fill="#D5F95F"/>
</g>
</svg>
