<svg width="32" height="32" viewBox="0 0 32 32" fill="none" xmlns="http://www.w3.org/2000/svg">
<circle cx="16" cy="16" r="16" fill="black"/>
<path fill-rule="evenodd" clip-rule="evenodd" d="M21.9906 10.743C22.6759 10.9274 23.2163 11.4677 23.4008 12.1528C23.7435 13.4046 23.7303 16.0135 23.7303 16.0135C23.7303 16.0135 23.7303 18.6093 23.4008 19.861C23.2163 20.5462 22.6759 21.0864 21.9906 21.2709C20.7385 21.6003 15.7304 21.6003 15.7304 21.6003C15.7304 21.6003 10.7354 21.6003 9.47015 21.2577C8.78482 21.0732 8.24447 20.533 8.05995 19.8478C7.73047 18.6093 7.73047 16.0003 7.73047 16.0003C7.73047 16.0003 7.73047 13.4046 8.05995 12.1528C8.24447 11.4677 8.798 10.9143 9.47015 10.7298C10.7222 10.4004 15.7304 10.4004 15.7304 10.4004C15.7304 10.4004 20.7385 10.4004 21.9906 10.743ZM14.1367 13.6025L18.3014 16.0006L14.1367 18.3987V13.6025Z" fill="#D5F95F"/>
</svg>
