<svg width="40" height="40" viewBox="0 0 40 40" fill="none" xmlns="http://www.w3.org/2000/svg">
<circle cx="20" cy="20" r="20" fill="black"/>
<path fill-rule="evenodd" clip-rule="evenodd" d="M27.4917 13.4282C28.3483 13.6588 29.0238 14.3341 29.2544 15.1906C29.6827 16.7553 29.6663 20.0164 29.6663 20.0164C29.6663 20.0164 29.6663 23.2611 29.2544 24.8258C29.0238 25.6822 28.3483 26.3575 27.4917 26.5881C25.9266 26.9999 19.6664 26.9999 19.6664 26.9999C19.6664 26.9999 13.4226 26.9999 11.8411 26.5717C10.9844 26.3411 10.309 25.6658 10.0784 24.8093C9.6665 23.2611 9.6665 19.9999 9.6665 19.9999C9.6665 19.9999 9.6665 16.7553 10.0784 15.1906C10.309 14.3341 11.0009 13.6423 11.8411 13.4118C13.4062 13 19.6664 13 19.6664 13C19.6664 13 25.9266 13 27.4917 13.4282ZM17.6732 17.0023L22.879 19.9999L17.6732 22.9975V17.0023Z" fill="#D5F95F"/>
<rect width="40" height="40" rx="20" fill="black"/>
<path fill-rule="evenodd" clip-rule="evenodd" d="M25.1573 14.1658L14.7556 20.5721C14.3569 20.8181 14.1693 21.2996 14.2979 21.7503L15.4225 25.702C15.5025 25.9819 15.9087 25.9533 15.9477 25.6641L16.2399 23.497C16.2952 23.0891 16.4897 22.713 16.7915 22.4322L25.3758 14.4526C25.5365 14.3038 25.3441 14.051 25.1573 14.1658ZM26.4615 29.6105L30.3814 10.7555C30.4823 10.2692 30.0045 9.86359 29.5415 10.0427L7.69871 18.469C7.15961 18.6767 7.16423 19.4399 7.70487 19.6425L13.0272 21.6288L15.0872 28.254C15.219 28.678 15.7379 28.835 16.0822 28.5534L19.049 26.135C19.36 25.8814 19.8029 25.8689 20.1278 26.1048L25.4788 29.9897C25.8471 30.2573 26.3691 30.0556 26.4615 29.6105Z" fill="#D5F95F"/>
</svg>
