<svg width="52" height="52" viewBox="0 0 52 52" fill="none" xmlns="http://www.w3.org/2000/svg">
<g id="Group 427320178">
<rect id="Rectangle Copy 19" width="52" height="52" rx="26" fill="black"/>
<g id="doc.on.doc.fill">
<mask id="mask0_5003_17068" style="mask-type:luminance" maskUnits="userSpaceOnUse" x="10" y="10" width="32" height="32">
<rect id="doc.on.doc.fill (Background/Mask)" x="10" y="10" width="32" height="32" fill="white"/>
</mask>
<g mask="url(#mask0_5003_17068)">
<path id="doc.on.doc.fill_2" fill-rule="evenodd" clip-rule="evenodd" d="M33.4062 32.8849C35.3614 32.8849 36.6615 31.8401 36.6615 29.6113V20.2282H30.9084C29.8745 20.2282 29.2296 19.6013 29.2296 18.5964V12.666H23.7222C21.5828 12.666 20.4055 13.8003 20.4055 15.86V16.3277H21.982C23.5892 16.3277 24.7561 16.6959 25.8924 17.7904L31.7069 23.4421C32.8124 24.5168 33.0888 25.7506 33.0888 27.2332V32.8849H33.4062ZM36.4977 18.8849C36.4465 18.5466 36.1906 18.2382 35.8016 17.8501L31.6659 13.7307C31.2872 13.3526 30.9596 13.1038 30.6116 13.064L30.6218 18.3178C30.6218 18.7158 30.7856 18.8849 31.195 18.8849H36.4977ZM28.2469 37.9993C30.4375 37.9993 31.584 36.875 31.584 34.7257V27.0143H24.2853C22.9852 27.0143 22.3505 26.3874 22.3505 25.1237V17.7804H18.6653C16.4746 17.7804 15.3281 18.9148 15.3281 21.064V34.7257C15.3281 36.8849 16.4746 37.9993 18.6653 37.9993H28.2469ZM31.3998 25.5516C31.2769 25.1237 31.0108 24.7158 30.5501 24.2581L25.1554 18.9347C24.6845 18.477 24.2853 18.1685 23.8451 18.0391V25.0043C23.8451 25.3625 24.0396 25.5516 24.4081 25.5516H31.3998Z" fill="#D5F95F"/>
</g>
</g>
</g>
</svg>
