<svg width="22" height="24" viewBox="0 0 22 24" fill="none" xmlns="http://www.w3.org/2000/svg">
<path id="Vector" d="M20.296 20.286H2.032C1.31793 20.286 0.75 20.8539 0.75 21.568C0.75 22.2821 1.31793 22.85 2.032 22.85H20.296C21.0101 22.85 21.578 22.2821 21.578 21.568C21.578 20.8817 21.0138 20.286 20.296 20.286ZM10.3032 18.9368C10.5408 19.1744 10.8716 19.3014 11.1881 19.274C11.4702 19.2716 11.8002 19.1854 12.0488 18.9368L18.2888 12.6968C18.7464 12.2391 18.7464 11.4809 18.2888 11.0232C17.8311 10.5656 17.0729 10.5656 16.6152 11.0232L12.314 15.3244V1.936C12.314 1.29812 11.7982 0.75 11.128 0.75C10.4619 0.75 9.942 1.26993 9.942 1.936V15.2284L5.73678 11.0232C5.27915 10.5656 4.52085 10.5656 4.06322 11.0232C3.60559 11.4809 3.60559 12.2391 4.06322 12.6968L10.3032 18.9368Z" fill="#D5F95F" stroke="#D5F95F" stroke-width="0.5"/>
</svg>
