<svg width="20" height="22" viewBox="0 0 20 22" fill="none" xmlns="http://www.w3.org/2000/svg">
<g id="Group 626357">
<path id="&#232;&#183;&#175;&#229;&#190;&#132; 36" d="M2.46497 1.69728L18.515 18.9821C18.8724 19.367 18.8562 19.9746 18.4788 20.3392C18.1327 20.6733 17.6033 20.6873 17.2421 20.3908L17.1481 20.3022L1.09804 3.01742C0.740579 2.63247 0.756802 2.02487 1.13427 1.66033C1.48028 1.32616 2.00973 1.31221 2.3709 1.60872L2.46497 1.69728Z" fill="black" stroke="black"/>
<path id="&#232;&#183;&#175;&#229;&#190;&#132; 36_2" d="M18.866 1.66058C19.212 1.99475 19.2545 2.53315 18.9838 2.91707L18.9022 3.01768L2.8522 20.3025C2.49474 20.6874 1.89897 20.704 1.5215 20.3394C1.17549 20.0052 1.13302 19.4669 1.40368 19.0829L1.48526 18.9823L17.5353 1.69754C17.8927 1.31258 18.4885 1.29604 18.866 1.66058Z" fill="black" stroke="black"/>
</g>
</svg>
