<svg width="52" height="52" viewBox="0 0 52 52" fill="none" xmlns="http://www.w3.org/2000/svg">
<g id="Group 427320176">
<rect id="Rectangle Copy 19" width="52" height="52" rx="26" fill="black"/>
<g id="Twitter logo">
<mask id="mask0_5003_17058" style="mask-type:luminance" maskUnits="userSpaceOnUse" x="11" y="13" width="31" height="26">
<path id="Clip 2" fill-rule="evenodd" clip-rule="evenodd" d="M11.4688 13.7637H41.2923V38.2343H11.4688V13.7637Z" fill="white"/>
</mask>
<g mask="url(#mask0_5003_17058)">
<path id="Fill 1" fill-rule="evenodd" clip-rule="evenodd" d="M38.239 19.8556C38.2572 20.1211 38.2572 20.3865 38.2572 20.6545C38.2572 28.8186 32.1023 38.2343 20.8477 38.2343V38.2294C17.5231 38.2343 14.2675 37.2726 11.4688 35.4595C11.9522 35.5182 12.438 35.5476 12.9251 35.5488C15.6803 35.5512 18.3567 34.6177 20.5242 32.8988C17.906 32.8486 15.61 31.1248 14.8079 28.6081C15.7251 28.7868 16.6701 28.7501 17.5704 28.5017C14.7158 27.9193 12.6622 25.3868 12.6622 22.4456V22.3673C13.5127 22.8457 14.465 23.1112 15.4392 23.1405C12.7506 21.3262 11.9219 17.7145 13.5454 14.8908C16.652 18.7508 21.2355 21.0974 26.1558 21.3457C25.6626 19.1998 26.3363 16.9511 27.9259 15.4426C30.3903 13.1033 34.2662 13.2232 36.5828 15.7105C37.9531 15.4377 39.2665 14.9299 40.4684 14.2106C40.0116 15.6408 39.0557 16.8557 37.7786 17.6277C38.9915 17.4833 40.1764 17.1554 41.2923 16.655C40.4708 17.898 39.4361 18.9808 38.239 19.8556Z" fill="#D5F95F"/>
</g>
</g>
</g>
</svg>
